PathFileType	4	(X/Y/Z)	Patient4_TMGait_0pt6_01_right_05.trc.trc
DataRate	CameraRate	NumFrames	NumMarkers	Units	OrigDataRate	OrigDataStartFrame	OrigNumFrames
76.086956521739	76.086956521739	7	33	mm	76.086956521739	1	       141
Frame#	Time	Sacral			L.Shoulder			Chest			R.Shoulder			Neck			R.ASIS			L.ASIS			R.Thigh.Superior			R.Thigh.Lateral			R.Thigh.Inferior			R.Patella			L.Thigh.Superior			L.Thigh.Lateral			L.Thigh.Inferior			L.Patella			L.Shank.Superior			L.Shank.Lateral			L.Shank.Inferior			R.Shank.Superior			R.Shank.Lateral			R.Shank.Inferior			R.Heel			R.Midfoot.Superior			R.Midfoot.Lateral			R.Toe			L.Heel			L.Midfoot.Lateral			L.Midfoot.Superior			L.Toe			L.Elbow			L.Wrist			R.Elbow			R.Wrist			
		X1	Y1	Z1	X2	Y2	Z2	X3	Y3	Z3	X4	Y4	Z4	X5	Y5	Z5	X6	Y6	Z6	X7	Y7	Z7	X8	Y8	Z8	X9	Y9	Z9	X10	Y10	Z10	X11	Y11	Z11	X12	Y12	Z12	X13	Y13	Z13	X14	Y14	Z14	X15	Y15	Z15	X16	Y16	Z16	X17	Y17	Z17	X18	Y18	Z18	X19	Y19	Z19	X20	Y20	Z20	X21	Y21	Z21	X22	Y22	Z22	X23	Y23	Z23	X24	Y24	Z24	X25	Y25	Z25	X26	Y26	Z26	X27	Y27	Z27	X28	Y28	Z28	X29	Y29	Z29	X30	Y30	Z30	X31	Y31	Z31	X32	Y32	Z32	X33	Y33	Z33	

1	5.390000000000	623.559324451256	1010.240890863470	433.820884533694	784.148886894872	1433.994532197011	240.079651561376	893.412046853107	1372.449612717624	400.461434238779	811.609592555594	1447.487725851223	573.797626427391	777.166798786928	1499.368346787141	391.115032981770	850.134966185684	944.986448685189	547.266577478412	837.210350889887	967.245466186487	274.290382058465	923.999539494485	764.555918382540	527.157290271382	871.311307814984	647.381935019503	600.852557871920	964.127207783151	601.516544121182	528.759161891877	972.004681460230	485.146419904068	552.088768723914	881.224377456617	753.328888136858	298.971395549368	787.085698793364	639.340045366608	247.126569799399	873.049542470597	560.381043387091	306.259432095669	872.168484968928	491.649886272429	317.151910114720	846.392113253606	420.042188064082	312.098627003652	755.256046788139	303.620988311452	267.206088377983	812.283830078339	195.562163552852	340.234652441365	885.985452725263	418.696516079475	552.632564014459	756.132278780793	397.622920868289	604.975261240415	728.707846348409	293.593123157642	553.456005953574	519.769276553968	257.328767250802	511.980597476680	679.726932061255	182.736461262741	560.962414853476	568.578678063157	192.577664823018	587.941771896627	732.795353316992	66.248664086533	592.162214029274	687.168221173080	38.426220338621	390.472671005671	760.912686108998	34.467103249427	309.111781582815	843.990224304329	96.660627344314	334.022146863687	972.194085930807	45.854771274857	307.387664731030	811.189871694531	1080.294789179393	120.254937366754	960.205301089337	865.930847897643	142.487468481250	782.454257584543	1100.341159332010	697.882334086382	856.666452270344	848.250557833973	687.218134158292	
2	5.403142857143	622.686341955638	1010.634724538184	432.786430874055	785.003487726443	1434.236323829791	239.380719752188	893.016848839189	1372.782658745054	400.590360321873	810.135983001619	1448.053819596709	573.289010040513	776.748598527055	1499.698161162306	390.401970480259	848.956015558521	945.850699246424	547.476202157421	837.712415761263	967.678885882861	274.103724364033	925.426597350717	768.257275267018	527.073917762307	875.413689662677	650.353653488471	601.235245469379	968.909020432050	606.256448045717	529.011474937362	979.555585127845	490.413237948845	552.342424960145	878.358613850878	752.308928396278	299.893570209158	783.132496204458	639.431743057139	247.138629644814	867.295889117624	559.503165313136	306.952277972686	865.398935952829	491.044448755677	317.872262201963	839.569986722357	419.783386619468	312.528947800930	748.230657046150	303.721802033152	267.176171391287	804.419005255588	195.423524969785	340.456375064129	895.504936071788	421.823692612105	553.135356630706	766.673570034400	396.690632013804	605.799389877305	742.409743946587	291.672428813338	554.344790731602	534.979610105519	248.895510643212	513.419104063629	697.109612889841	179.411385447698	562.245151772275	585.889709156567	185.914624053859	589.470611870531	753.690191614811	64.629041140070	593.673071245349	678.696636915152	38.427798819454	390.461416818003	752.527738744690	34.479645175732	309.113510516638	835.621861344196	96.589445733383	334.115045741656	963.826880166801	45.717937140589	307.441724203746	816.689027691838	1081.535139787239	118.731800581948	975.766453458045	876.038991895508	143.070018852872	769.979186244766	1104.328934246205	700.071464753276	832.708711286379	850.286595690466	696.527980250462	
3	5.416285714286	621.812755720375	1010.996770531740	431.779701162292	785.873675701863	1434.441300140127	238.717213881297	892.628852239066	1373.084849632246	400.754433237394	808.667614478355	1448.596138182411	572.807189444719	776.346813783308	1500.000138812322	389.716634397429	847.759144073641	946.678928522176	547.706251001155	838.162160177611	968.053029166805	273.972716923798	926.779001799589	771.874032156068	526.988792380410	879.405097644708	653.245173381758	601.588750409304	973.522500377789	610.874349993471	529.202066838247	986.889828030832	495.598171107306	552.554372404019	875.538165345236	751.287076067529	300.822806181166	779.231656295633	639.510965806494	247.156699253429	861.615465127184	558.628172900940	307.631517603499	858.711020581159	490.432991029306	318.582985659841	832.821997878126	419.509975621138	312.957144763812	741.269878776723	303.815850864179	267.145715372527	796.611141687718	195.276051673974	340.673480736575	904.886424915362	424.841295448203	553.604044477997	777.159442042763	395.493711184474	606.627659237403	756.171641450411	289.491200742462	555.247273775316	550.315292398543	239.951981037047	514.957063551656	714.674073687415	175.806455868574	563.538270358412	603.414271393273	178.840760843010	591.073691987634	774.913991097431	62.845013157098	595.177773312534	670.284652741899	38.425874278591	390.450606643904	744.197372630324	34.485787343735	309.115515798858	827.307766628513	96.516721382073	334.208069328623	955.517566484319	45.582918463357	307.496571435523	822.010965101428	1082.708622450919	117.279490721929	991.078750103797	886.206342824090	143.699646714711	757.675790062999	1108.327534696689	702.239365524046	809.145129834935	852.490979382398	705.645045852517	
4	5.429428571429	620.943451311723	1011.294659527758	430.829008156705	786.778237450118	1434.569685561308	238.132466871081	892.262554041262	1373.320157940791	400.995175214126	807.216761119269	1449.086458895053	572.387198577607	775.982997908826	1500.242115901424	389.095562322090	846.529859436634	947.428257043211	547.988180658449	838.522421838636	968.312127941731	273.957857414261	927.951443544883	775.278401254411	526.917442422032	883.112052959958	655.943574249661	601.901145799758	977.737787071354	615.202023907342	529.292446138515	993.730364262225	500.590941521928	552.697017959825	872.811993389675	750.259740906642	301.775367609471	775.440831825878	639.562471387987	247.195391677644	856.082566131152	557.755792352857	308.296949989239	852.186912463323	489.806177553366	319.285819682542	826.223375646100	419.205885987300	313.388813745511	734.440727859175	303.895644385517	267.121054750519	788.916036803765	195.109421903934	340.888029644056	913.951049637017	427.643039980430	554.017569421803	787.544722710554	393.797940995405	607.467455005358	770.078493183382	286.865985711787	556.171533597075	566.034291669497	230.101750770040	516.647094063045	732.654493690291	171.757448699713	564.841638668427	621.460376800120	171.065156437314	592.787664574651	796.806479053721	60.882147349597	596.656590982569	661.984388536555	38.420676869748	390.441386683387	735.968328220373	34.483240122846	309.118664087523	819.095660774201	96.440703988903	334.303067209391	947.314085078441	45.448838819681	307.552528819653	826.987440277800	1083.743406105429	115.985240699577	1005.844547494713	896.512932676854	144.438588103996	745.743621290595	1112.323121291520	704.352234969550	786.414613153889	854.985411976110	714.360909234503	
5	5.442571428571	620.079097539097	1011.503611241295	429.953921674216	787.734644231370	1434.586841284385	237.665380773613	891.930941222237	1373.457207173739	401.351157388382	805.791939124589	1449.500583290972	572.061492105430	775.675389486652	1500.395840483138	388.572714904167	845.254625199015	948.062754834851	548.355196241801	838.769180681227	968.413438591747	274.112114089655	928.846860318105	778.355073810635	526.878540207351	886.379108873087	658.348054524508	602.168385551966	981.348878633193	619.089144144633	529.254316266884	999.837569675207	505.299143726596	552.750427799338	870.218994051462	749.219055629924	302.766219996447	771.800136564445	639.571888462149	247.271672708046	850.747618559696	556.881594137005	308.954914458397	845.881686209618	489.152441788723	319.989403359527	819.822209573207	418.855196514685	313.834898803278	727.783538055887	303.954355996527	267.111865719797	781.359116407638	194.912667900347	341.106510784578	922.556970015695	430.146066039020	554.362462794871	797.825481696738	391.414537902939	608.328867510518	784.251132920894	283.665281969888	557.122727348059	582.455101049221	219.028909935025	518.517941850288	751.319681670272	167.166084497752	566.152470583302	640.378564059058	162.374882957748	594.633900841496	819.718151366752	58.792446638799	598.093152106773	653.812081006891	38.413871088282	390.433750801535	727.852567131062	34.471593232228	309.123767929911	810.998781898713	96.359429105559	334.402873838832	939.229001028934	45.313624477206	307.609674515756	831.497005652510	1084.578946439881	114.927148155735	1019.835708958000	907.064657551489	145.346091748225	734.328365286799	1116.304743082751	706.382716899811	764.838474387335	857.853463378319	722.519225268966	
6	5.455714285714	619.218846754357	1011.608050514727	429.165281323368	788.756152995801	1434.466739079911	237.348004444180	891.645353766573	1373.471832864494	401.854055377039	804.400246605245	1449.819629278439	571.857908966825	775.437983230589	1500.439194505367	388.177776860690	843.925131620183	948.555365798169	548.839134430872	838.899279234772	968.332646658898	274.474119841107	929.383167422965	781.004569001451	526.894367290696	889.073661767903	660.373419658564	602.395941024579	984.184677992509	622.409181639494	529.076168113758	1005.020893972325	509.647804437487	552.706129121319	867.787765028854	748.155397793694	303.807627135269	768.334512240638	639.527091265180	247.403697323935	845.640198764477	555.998793307898	309.618079723946	839.827530818545	488.460398638297	320.707851125951	813.644219311802	418.444509224394	314.310320419032	721.318293557422	303.986436144876	267.130714674435	773.945026532653	194.675854993806	341.339161525022	930.596196304325	432.295993545877	554.635194763513	808.021602958411	388.227734569468	609.221997765865	798.809428680866	279.836735049156	558.100579455110	599.902252282971	206.563238021692	520.563971840144	770.913778557791	162.028060129597	567.462271870194	660.495957467560	152.683599706486	596.608941861049	843.930971900368	56.702953513423	599.471629383468	645.759364592820	38.408533509921	390.426823969593	719.838861433106	34.452739097125	309.131590630645	803.007447031720	96.271167297020	334.510899198578	931.250853904184	45.174287054705	307.667719511075	835.471073070774	1085.171033868524	114.168607544174	1032.889827445558	917.965369169432	146.472247280586	723.529067116035	1120.255690284095	708.309155787462	744.627886319150	861.122986901577	730.016790359946	
7	5.468857142857	618.363976284660	1011.600801214144	428.467018002631	789.850880168322	1434.193559198310	237.204425219093	891.415755381200	1373.347923947049	402.526637960559	803.049308540269	1450.030180975356	571.798601960367	775.280422933035	1500.357080632673	387.935154657177	842.540764548910	948.887929554374	549.467773146292	838.932945456738	968.064269724664	275.065262202493	929.497198567557	783.144446117624	526.991437456833	891.086476928357	661.951281985337	602.599691631021	986.114596713761	625.062667137352	528.768246607173	1009.143603267324	513.578191413508	552.569329129926	865.536033521605	747.059509102772	304.910241102118	765.056622693154	639.419157959984	247.609498074113	840.771763594102	555.099882177658	310.304813463482	834.037439141166	487.721031458899	321.458423701160	807.696734930018	417.964607270340	314.831960429519	715.049568930635	303.988050271097	267.191851434948	766.665661223230	194.391567605396	341.598457698175	937.989312936279	434.068136105045	554.843369204654	818.160591972119	384.206108474348	610.154108775809	813.844357880071	275.417410874517	559.098675682094	618.661285951998	192.711088538574	522.742486740863	791.614070330595	156.439745016658	568.755804803244	682.067071242481	142.049734145140	598.680149288844	869.607205289306	54.807356603966	600.773927499680	637.803674713016	38.408750663961	390.419470281305	711.903156898732	34.430909615315	309.142835628373	795.099286315995	96.174843773369	334.630627879115	923.354396639711	45.027275162272	307.726019470927	838.891911794771	1085.494099236389	113.755062525640	1044.901135264800	929.296757377884	147.855207032110	713.408102972417	1124.147462999958	710.114831406849	725.901228276901	864.761646646093	736.798701401934	
